<?xml version="1.0" encoding="utf-8"?>
<!-- Generator: Adobe Illustrator 18.1.1, SVG Export Plug-In . SVG Version: 6.00 Build 0)  -->
<svg version="1.1" id="reliv-logo-svg" xmlns="http://www.w3.org/2000/svg" xmlns:xlink="http://www.w3.org/1999/xlink" x="0px" y="0px"
	 viewBox="0 0 293.7 294" enable-background="new 0 0 293.7 294" xml:space="preserve">
<circle id="reliv-logo-svg-circle" fill="#00A4E4" cx="145.1" cy="148" r="125.5"/>
<g>
	<path fill="#FFFFFF" d="M169.1,171.6c-5-8.1-8.4-17-17.2-23.6c-5.8-4.4-13.2-5.1-20.9-4.9v-14.5c5.8-0.6,11.8,0.5,16.6,3.4
		c16.3,9.6,16.8,27.3,26.4,40.6c6.1,8,15.4,11.6,25.5,12.7l0,3.1C187.1,187.9,175.6,182,169.1,171.6z"/>
	<path fill="#FFFFFF" d="M169.1,190.4c-5-8.1-8.4-17-17.2-23.6c-5.8-4.4-13.2-5.1-20.9-4.9v-14.5c5.8-0.6,11.8,0.5,16.6,3.4
		c16.3,9.6,16.8,27.3,26.4,40.6c6.1,8,15.4,11.6,25.5,12.7l0,3.1C187.1,206.7,175.6,200.8,169.1,190.4z"/>
	<path fill="#FFFFFF" d="M169.1,209.2c-5-8.1-8.4-17-17.2-23.6c-5.8-4.4-13.2-5.1-20.9-4.9v-14.5c5.8-0.6,11.8,0.5,16.6,3.4
		c16.3,9.6,16.8,27.3,26.4,40.6c6.1,8,15.4,11.6,25.5,12.7l0,3.1C187.1,225.4,175.6,219.6,169.1,209.2z"/>
	<g>
		<path fill="#FFFFFF" d="M82.4,95.2c0-3.6-0.1-7.4-0.3-10.9h3.3l0.2,7.3h0.2c1.6-4.5,8.8-8.2,13.8-8.2c0.5,0,2.4,0.1,2.9,0.2v3.5
			c-0.5-0.1-2.5-0.1-3.2-0.1c-5,0-12,4.3-13,10.1c-0.2,1.1-0.3,2.3-0.3,3.5v20h-3.6V95.2z"/>
		<path fill="#FFFFFF" d="M107.2,102.1c0,11.6,6.3,16.2,13.8,16.2c5.3,0,10.9-2.8,12.9-3.8v3c-1.4,0.8-7,3.9-13.3,3.9
			c-10.4,0-16.9-7.6-16.9-18.3c0-12.1,6.9-19.6,16.3-19.6c11.9,0,14.1,11.2,14.1,16.4c0,1,0,1.6-0.1,2.2H107.2z M130.3,99.2
			c0.1-5.1-2-12.8-10.8-12.8c-8,0-11.5,7.2-12.1,12.8H130.3z"/>
		<path fill="#FFFFFF" d="M143.9,62.9h3.6v57.7h-3.6V62.9z"/>
		<path fill="#FFFFFF" d="M158.2,120.6V84.3h3.5v36.2H158.2z"/>
		<path fill="#FFFFFF" d="M174.2,84.3l8.5,22.5c1.4,3.6,2.6,6.6,3.6,9.7h0.1c1.1-3,2.3-6.2,3.7-9.7l8.6-22.5h3.8l-14.7,36.2h-3.2
			l-14.2-36.2H174.2z"/>
	</g>
</g>
<g>
	<path fill="#FFFFFF" d="M201.7,118.2c0,1.8-1.5,3.3-3.3,3.3c-1.9,0-3.4-1.5-3.4-3.3c0-1.8,1.5-3.3,3.4-3.3
		C200.2,114.9,201.7,116.4,201.7,118.2z M195.6,118.2c0,1.6,1.2,2.9,2.8,2.9c1.6,0,2.8-1.3,2.8-2.9c0-1.6-1.2-2.9-2.8-2.9
		C196.8,115.3,195.6,116.6,195.6,118.2z M197.9,119.9h-0.8v-3.3c0.3,0,0.7-0.1,1.3-0.1c0.6,0,0.9,0.1,1.1,0.3
		c0.2,0.1,0.3,0.4,0.3,0.7c0,0.4-0.3,0.7-0.7,0.8v0c0.3,0.1,0.5,0.4,0.6,0.8c0.1,0.5,0.2,0.7,0.2,0.8h-0.8c-0.1-0.1-0.2-0.4-0.3-0.8
		c-0.1-0.3-0.3-0.5-0.7-0.5h-0.4V119.9z M197.9,118.1h0.4c0.4,0,0.8-0.1,0.8-0.5c0-0.3-0.2-0.5-0.7-0.5c-0.2,0-0.3,0-0.4,0V118.1z"
		/>
</g>
</svg>
